# AST/ASF file generated using VICON BodyLanguage
# -----------------------------------------------
:version 1.10
:name VICON
:units
  mass 1.0
  length 0.45
  angle deg
:documentation
   .ast/.asf automatically generated from VICON data using
   VICON BodyBuilder and BodyLanguage model FoxedUp or BRILLIANT.MOD
:root
   order TX TY TZ RX RY RZ
   axis XYZ
   position 0 0 0  
   orientation 0 0 0 
:bonedata
  begin
     id 1 
     name lhipjoint
     direction 0.700308 -0.549349 0.455834 
     length 2.59063 
     axis 0 0 0  XYZ
  end
  begin
     id 2 
     name lfemur
     direction 0.34202 -0.939693 0  
     length 6.31066  
     axis 0 0 20  XYZ
    dof rx ry rz
    limits (-160.0 20.0)
           (-70.0 70.0)
           (-60.0 70.0)
  end
  begin
     id 3 
     name ltibia
     direction 0.34202 -0.939693 0   
     length 7.36093   
     axis 0 0 20   XYZ
    dof rx
    limits (-10.0 170.0)
  end
  begin
     id 4 
     name lfoot
     direction 0.0905332 -0.248738 0.96433   
     length 2.0233   
     axis -90 7.62852e-016 20   XYZ
    dof rx rz
    limits (-45.0 90.0)
           (-70.0 20.0)
  end
  begin
     id 5 
     name ltoes
     direction 1.53573e-011 -4.21855e-011 1   
     length 1.01524   
     axis -90 7.62852e-016 20   XYZ
    dof rx
    limits (-90.0 20.0)
  end
  begin
     id 6 
     name rhipjoint
     direction -0.61416 -0.607328 0.503944   
     length 2.34332  
     axis 0 0 0  XYZ 
  end
  begin
     id 7 
     name rfemur
     direction -0.34202 -0.939693 0   
     length 6.58548   
     axis 0 0 -20   XYZ
    dof rx ry rz
    limits (-160.0 20.0)
           (-70.0 70.0)
           (-70.0 60.0)
  end
  begin
     id 8 
     name rtibia
     direction -0.34202 -0.939693 0   
     length 7.20707   
     axis 0 0 -20   XYZ
    dof rx
    limits (-10.0 170.0)
 end
 begin
     id 9 
     name rfoot
     direction -0.136772 -0.375778 0.916561   
     length 1.92184  
     axis -90 -7.62852e-016 -20   XYZ
    dof rx rz
    limits (-45.0 90.0)
           (-20.0 70.0)
  end
  begin
     id 10 
     name rtoes
     direction -1.53535e-011 -4.21828e-011 1   
     length 0.951089   
     axis -90 -7.62852e-016 -20   XYZ
    dof rx
    limits (-90.0 20.0)
  end
  begin
     id 11 
     name lowerback
     direction -0.0444974 0.988086 -0.147332   
     length 1.9609   
     axis 0 0 0   XYZ
    dof rx ry rz
    limits (-20.0 45.0)
           (-30.0 30.0)
           (-30.0 30.0)
  end
  begin
     id 12 
     name upperback
     direction 0.00613146 0.999513 0.0306081   
     length 1.94944   
     axis 0 0 0   XYZ
    dof rx ry rz
    limits (-20.0 45.0)
           (-30.0 30.0)
           (-30.0 30.0)
  end
  begin
     id 13 
     name thorax
     direction 0.0254621 0.994518 0.101418   
     length 2.0119   
     axis 0 0 0   XYZ
    dof rx ry rz
    limits (-20.0 45.0)
           (-30.0 30.0)
           (-30.0 30.0)
  end
  begin
     id 14 
     name lowerneck
     direction 0.0168698 0.977854 0.208608   
     length 1.6375   
     axis 0 0 0   XYZ
    dof rx ry rz
    limits (-20.0 45.0)
           (-30.0 30.0)
           (-30.0 30.0)
  end
  begin
     id 15 
     name upperneck
     direction -0.0283988 0.989338 -0.142843   
     length 1.6851   
     axis 0 0 0   XYZ
    dof rx ry rz
    limits (-20.0 45.0)
           (-30.0 30.0)
           (-30.0 30.0)
  end
  begin
     id 16
     name head
     direction -0.0129422 0.99741 -0.0707489  
     length 1.69029  
     axis 0 0 0   XYZ
    dof rx ry rz
    limits (-20.0 45.0)
           (-30.0 30.0)
           (-30.0 30.0)
  end
  begin
     id 17 
     name lclavicle
     direction 0.820295 0.564628 -0.0911715  
     length 3.16484  
     axis 0 0 0   XYZ
    dof ry rz
    limits (-20.0 10.0)
           (0.0 20.0)
  end
  begin
     id 18 
     name lhumerus
     direction 1 -4.48969e-011 1.00186e-027   
     length 5.17853   
     axis 180 -30 -90   XYZ
    dof rx ry rz
    limits (-60.0 90.0)
           (-90.0 90.0)
           (-90.0 90.0)
  end
  begin
     id 19
     name lradius
     direction 1 -4.48966e-011 -1.52922e-027   
     length 3.40399   
     axis 180 -30 -90   XYZ
    dof rx
    limits (-10.0 170.0)
  end
  begin
     id 20
     name lwrist
     direction 1 -4.48981e-011 -3.80893e-027   
     length 1.70199   
     axis 1.1049e-015 90 90   XYZ
    dof ry
    limits (-180.0 0.0)
 end
  begin
     id 21 
     name lhand
     direction 1 -4.48957e-011 -7.61786e-027   
     length 0.708964   
     axis 4.86085e-015 90 90   XYZ
    dof rx rz
    limits (-90.0 90.0)
           (-45.0 45.0)
  end
  begin
     id 22 
     name lfingers
     direction 1 -4.48929e-011 -1.52357e-026   
     length 0.571585   
     axis 9.7217e-015 90 90   XYZ
    dof rx
    limits (0.0 90.0)
  end
  begin
     id 23
     name lthumb
     direction 0.707107 -6.34905e-011 0.707107   
     length 0.820685   
     axis -90 45 2.85299e-015   XYZ
    dof rx rz
    limits (-45.0 45.0)
           (-45.0 45.0)
  end
  begin
     id 24 
     name rclavicle
     direction -0.858602 0.463947 -0.218075   
     length 3.35137  
     axis 0 0 0   XYZ 
    dof ry rz
    limits (-10.0 20.0)
           (-20.0 0.0)
  end
  begin
     id 25 
     name rhumerus
     direction -1 -4.48969e-011 -1.98511e-027  
     length 5.42351   
     axis 180 30 90   XYZ
    dof rx ry rz
    limits (-90.0 60.0)
           (-90.0 90.0)
           (-90.0 90.0)
  end
  begin
     id 26 
     name rradius
     direction -1 -4.48961e-011 -2.82624e-027   
     length 3.42066   
     axis 180 30 90   XYZ
    dof rx
    limits (-10.0 170.0)
  end
  begin
     id 27 
     name rwrist
     direction -1 -4.48966e-011 -3.80893e-027   
     length 1.71033   
     axis 1.1049e-015 -90 -90   XYZ
    dof ry
    limits (-180.0 0.0)
  end
  begin
     id 28
     name rhand
     direction -1 -4.48964e-011 -7.61786e-027   
     length 0.743608   
     axis 4.86085e-015 -90 -90   XYZ
    dof rx rz
    limits (-90.0 90.0)
           (-45.0 45.0)
  end
  begin
     id 29
     name rfingers
     direction -1 -4.48961e-011 -1.52357e-026   
     length 0.599516   
     axis 9.7217e-015 -90 -90   XYZ
    dof rx
    limits (0.0 90.0)
  end
  begin
     id 30
     name rthumb
     direction -0.707107 -6.34913e-011 0.707107   
     length 0.860789   
     axis -90 -45 -2.85299e-015   XYZ
    dof rx rz
    limits (-45.0 45.0)
           (-45.0 45.0)
  end
:hierarchy
  begin
    root lhipjoint rhipjoint lowerback
    lhipjoint lfemur
    lfemur ltibia
    ltibia lfoot
    lfoot ltoes
    rhipjoint rfemur
    rfemur rtibia
    rtibia rfoot
    rfoot rtoes
    lowerback upperback
    upperback thorax
    thorax lowerneck lclavicle rclavicle
    lowerneck upperneck
    upperneck head
    lclavicle lhumerus
    lhumerus lradius
    lradius lwrist
    lwrist lhand lthumb
    lhand lfingers
    rclavicle rhumerus
    rhumerus rradius
    rradius rwrist
    rwrist rhand rthumb
    rhand rfingers
  end

#!OML:ASF E:\mmandel\Project 1\Capture day 1\Session 2\Subject.ASF
:FULLY-SPECIFIED
:DEGREES
96
root -2.28218 2.54158 -5.1729 -27.5063 15.2091 83.7183
lowerback 19.4367 -3.5101 -3.74679
upperback 3.63933 -5.74506 -3.47459
thorax -6.90434 -2.76752 -0.182805
lowerneck -18.5269 1.38668 10.1202
upperneck 24.0093 -5.40898 14.146
head 11.351 0.283624 2.72453
rclavicle -5.1684e-015 -1.59028e-015
rhumerus 74.9707 -5.32219 -58.777
rradius 28.7824
rwrist -61.6455
rhand -21.8444 20.4116
rfingers 7.12502
rthumb 4.55904 -9.51937
lclavicle -5.1684e-015 -1.59028e-015
lhumerus 43.7403 -54.7987 83.4577
lradius 60.4277
lwrist 25.9188
lhand -38.2371 -54.1607
lfingers 7.12502
lthumb -11.268 -24.4834
rfemur -52.5342 1.37145 6.6375
rtibia 42.1595
rfoot -3.20872 -19.8014
rtoes -0.564658
lfemur -14.8632 15.4061 -25.9915
ltibia 79.1437
lfoot 13.8699 -5.50906
ltoes -17.1959
97
root -2.27939 2.53677 -5.18018 -27.5581 15.403 83.6398
lowerback 19.522 -3.56454 -3.71266
upperback 3.62226 -5.81839 -3.49698
thorax -6.9734 -2.8023 -0.201456
lowerneck -18.5496 1.41152 10.0481
upperneck 24.2001 -5.43071 14.2644
head 11.438 0.300324 2.78626
rclavicle -1.31198e-014 2.8625e-014
rhumerus 74.9611 -5.3399 -58.9953
rradius 28.7047
rwrist -61.4523
rhand -21.7695 20.3335
rfingers 7.12502
rthumb 4.63137 -9.59589
lclavicle -1.31198e-014 2.8625e-014
lhumerus 43.9489 -54.7444 83.2729
lradius 60.2345
lwrist 25.482
lhand -38.0286 -53.6438
lfingers 7.12502
lthumb -11.0669 -23.9556
rfemur -52.4097 1.20266 6.58927
rtibia 42.0747
rfoot -3.14848 -19.8531
rtoes -0.486063
lfemur -14.788 15.5439 -25.8168
ltibia 79.115
lfoot 14.039 -5.73674
ltoes -17.9348
98
root -2.27446 2.52981 -5.18531 -27.5513 15.6509 83.6369
lowerback 19.5846 -3.55346 -3.7287
upperback 3.57396 -5.81895 -3.55519
thorax -7.06437 -2.80041 -0.248633
lowerneck -18.4592 1.36938 9.95908
upperneck 24.2412 -5.48252 14.3655
head 11.4436 0.283313 2.83178
rclavicle -4.69132e-014 -1.11319e-014
rhumerus 74.7701 -5.48966 -59.123
rradius 28.6635
rwrist -61.2854
rhand -21.7065 20.2982
rfingers 7.12502
rthumb 4.69213 -9.62982
lclavicle -4.69132e-014 -1.11319e-014
lhumerus 44.2344 -54.9497 83.0353
lradius 60.1421
lwrist 25.4378
lhand -37.8711 -52.9469
lfingers 7.12502
lthumb -10.915 -23.2506
rfemur -52.3544 1.01339 6.44275
rtibia 42.0096
rfoot -3.07027 -19.8753
rtoes -0.507136
lfemur -14.7896 15.7114 -25.7311
ltibia 79.1213
lfoot 14.1374 -6.17314
ltoes -19.4513
99
root -2.27644 2.52463 -5.19396 -27.5821 15.8126 83.5713
lowerback 19.6144 -3.52382 -3.67995
upperback 3.57584 -5.77553 -3.60526
thorax -7.08921 -2.78028 -0.338156
lowerneck -18.3665 1.33975 9.97285
upperneck 24.1265 -5.50457 14.4271
head 11.3846 0.269846 2.84361
rclavicle -1.82882e-014 3.18055e-014
rhumerus 74.5849 -5.68575 -59.2858
rradius 28.6287
rwrist -61.0588
rhand -21.7409 20.3586
rfingers 7.12502
rthumb 4.65897 -9.57018
lclavicle -1.82882e-014 3.18055e-014
lhumerus 44.6014 -55.1725 82.7008
lradius 60.0709
lwrist 25.7278
lhand -37.4944 -52.6667
lfingers 7.12502
lthumb -10.5516 -22.9516
rfemur -52.2597 0.904607 6.38751
rtibia 41.976
rfoot -3.04936 -19.9108
rtoes 0.598084
lfemur -14.7371 15.9446 -25.5204
ltibia 79.1036
lfoot 14.1799 -6.57133
ltoes -20.617
100
root -2.2768 2.52047 -5.20137 -27.6326 15.9364 83.4903
lowerback 19.5646 -3.53528 -3.54499
upperback 3.65232 -5.76669 -3.7208
thorax -7.00562 -2.78327 -0.544873
lowerneck -18.4591 1.30661 10.0685
upperneck 24.126 -5.64603 14.5949
head 11.4195 0.242129 2.87263
rclavicle 1.98785e-014 -3.02153e-014
rhumerus 74.4802 -5.89931 -59.6694
rradius 28.5883
rwrist -60.7545
rhand -21.7509 20.4504
rfingers 7.12502
rthumb 4.6493 -9.47857
lclavicle 1.98785e-014 -3.02153e-014
lhumerus 45.0771 -55.2384 82.1447
lradius 59.9605
lwrist 25.8029
lhand -37.009 -52.3581
lfingers 7.12502
lthumb -10.0833 -22.6196
rfemur -52.1653 0.812173 6.36682
rtibia 41.9595
rfoot -3.02657 -19.9321
rtoes 1.73774
lfemur -14.6318 16.1329 -25.2865
ltibia 79.0591
lfoot 14.1985 -6.80034
ltoes -20.8884
101
root -2.27346 2.51313 -5.20674 -27.5981 16.1391 83.6116
lowerback 19.5393 -3.49767 -3.62476
upperback 3.69364 -5.74496 -3.87746
thorax -6.95672 -2.77493 -0.676365
lowerneck -18.667 1.25517 10.1236
upperneck 24.2688 -5.84019 14.73
head 11.5341 0.201892 2.89568
rclavicle -3.81667e-014 -3.18055e-015
rhumerus 74.3643 -6.14977 -59.9506
rradius 28.5271
rwrist -60.547
rhand -21.7817 20.5216
rfingers 7.12502
rthumb 4.61959 -9.408
lclavicle -3.81667e-014 -3.18055e-015
lhumerus 45.4665 -55.2866 81.6852
lradius 59.8502
lwrist 25.5176
lhand -36.609 -51.6151
lfingers 7.12502
lthumb -9.69743 -21.8583
rfemur -52.1696 0.702171 6.13209
rtibia 41.9588
rfoot -3.06005 -19.9124
rtoes 0.869453
lfemur -14.548 16.3624 -25.2633
ltibia 78.9787
lfoot 14.3106 -6.9478
ltoes -20.4586
102
root -2.27225 2.50455 -5.21337 -27.5433 16.3695 83.7715
lowerback 19.4544 -3.44914 -3.89683
upperback 3.75455 -5.73416 -3.93758
thorax -6.8251 -2.76875 -0.599328
lowerneck -18.6668 1.29966 10.1703
upperneck 24.2367 -5.76527 14.6681
head 11.5146 0.228963 2.87474
rclavicle -5.32743e-014 -1.43125e-014
rhumerus 74.3568 -6.33847 -59.9981
rradius 28.4934
rwrist -60.5297
rhand -21.7319 20.5505
rfingers 7.12502
rthumb 4.66767 -9.3781
lclavicle -5.32743e-014 -1.43125e-014
lhumerus 45.8443 -55.2111 81.3442
lradius 59.7726
lwrist 25.3156
lhand -36.2151 -50.883
lfingers 7.12502
lthumb -9.31734 -21.1089
rfemur -52.1818 0.602001 5.84077
rtibia 41.9834
rfoot -3.12461 -19.9103
rtoes -0.405536
lfemur -14.4821 16.6039 -25.2864
ltibia 78.886
lfoot 14.4494 -7.19028
ltoes -20.7533
